<?xml version="1.0" standalone="no"?>
<!DOCTYPE svg PUBLIC "-//W3C//DTD SVG 20010904//EN"
 "http://www.w3.org/TR/2001/REC-SVG-20010904/DTD/svg10.dtd">
<svg version="1.0" xmlns="http://www.w3.org/2000/svg"
 width="4620.000000pt" height="2976.000000pt" viewBox="0 0 4620.000000 2976.000000"
 preserveAspectRatio="xMidYMid meet">

<g transform="translate(0.000000,2976.000000) scale(0.100000,-0.100000)"
fill="#000000" stroke="none">
<path d="M19054 22934 c-59 -21 -123 -80 -150 -138 l-24 -51 0 -892 0 -891
-67 -7 c-76 -8 -206 -46 -241 -71 -14 -10 -21 -22 -17 -33 15 -47 24 -279 15
-369 -33 -315 -127 -561 -412 -1077 -183 -330 -200 -371 -218 -520 -32 -266
-353 -1020 -682 -1603 -124 -221 -172 -288 -371 -523 -228 -268 -327 -484
-357 -778 -15 -151 -13 -268 11 -526 26 -294 28 -679 4 -915 -42 -426 -133
-837 -240 -1090 -44 -105 -188 -387 -254 -498 -151 -255 -508 -686 -1063
-1280 -259 -277 -1294 -1338 -1377 -1412 -39 -34 -52 -52 -48 -64 5 -13 11
-14 24 -7 29 15 890 887 1227 1241 942 990 1330 1492 1510 1953 229 584 321
1321 256 2057 -32 359 -25 547 26 750 44 174 127 322 293 523 268 324 346 446
572 892 293 577 479 1050 509 1292 15 120 51 205 191 453 249 442 345 665 410
948 24 104 36 395 21 487 -12 70 -9 76 61 99 278 93 490 -14 647 -325 131
-258 111 -834 -50 -1504 -58 -244 -173 -559 -232 -638 -19 -26 -71 -227 -256
-997 -128 -531 -232 -971 -232 -979 0 -7 20 -56 45 -107 330 -692 545 -1644
545 -2409 0 -469 -121 -1080 -317 -1604 -34 -91 -50 -148 -44 -154 16 -16 27
0 61 90 18 48 37 92 42 97 4 6 8 -91 8 -215 0 -195 3 -229 19 -264 27 -60 67
-103 125 -133 l51 -27 820 -3 c776 -3 819 -4 799 -20 -511 -410 -963 -655
-1501 -813 -98 -28 -117 -31 -203 -26 -58 3 -129 16 -183 31 -196 58 -324 139
-502 319 -169 172 -180 180 -452 350 -308 192 -377 243 -503 367 -159 158
-250 307 -316 518 -35 108 -48 129 -61 97 -9 -25 54 -209 110 -319 128 -250
318 -431 703 -666 275 -168 311 -195 464 -348 79 -79 176 -167 215 -194 161
-114 335 -179 522 -195 49 -4 73 -10 73 -19 0 -23 -62 -189 -88 -234 -82 -143
-161 -232 -275 -309 -124 -84 -242 -224 -540 -641 -291 -407 -1047 -1552
-1047 -1585 0 -42 38 3 150 177 190 297 740 1121 889 1333 298 424 441 597
557 676 94 63 196 164 251 246 48 73 116 226 136 303 l14 55 124 35 c355 101
745 287 1097 522 134 89 319 228 401 300 l44 38 992 0 992 0 11 -51 c38 -162
199 -368 487 -623 137 -122 423 -349 780 -621 482 -367 675 -525 849 -694 190
-183 290 -323 332 -461 34 -111 63 -167 139 -270 148 -201 217 -325 274 -493
34 -100 37 -105 53 -89 10 10 5 35 -22 115 -49 144 -117 271 -230 427 -108
150 -141 210 -172 308 -39 127 -78 193 -204 342 -166 196 -365 365 -1039 880
-556 425 -758 593 -933 775 -130 135 -227 268 -260 357 -17 46 -21 88 -27 279
-3 123 -15 427 -25 674 -35 821 -45 1314 -32 1570 18 350 49 531 104 600 12
15 53 41 92 59 164 75 434 276 764 568 l122 109 73 -153 c41 -84 109 -226 152
-316 73 -154 77 -165 71 -212 -17 -131 -123 -326 -278 -512 l-51 -60 -17 48
c-43 120 -93 194 -131 194 -28 0 -23 -17 14 -53 22 -21 45 -61 66 -117 36 -93
40 -119 67 -525 43 -645 42 -640 126 -913 38 -124 40 -140 35 -215 -3 -45 -15
-108 -26 -141 -21 -60 -20 -76 4 -76 21 0 55 122 62 220 5 80 3 93 -40 235
-48 158 -66 237 -50 220 8 -8 97 -114 199 -236 8 -8 18 -49 24 -90 24 -174
206 -426 285 -395 24 9 18 36 -9 36 -33 0 -132 108 -178 195 -37 71 -68 171
-68 219 0 74 78 216 196 356 81 97 200 214 206 204 3 -5 13 -33 23 -62 22 -68
62 -117 81 -101 12 9 11 15 -5 38 -62 88 -71 145 -80 501 -5 222 -10 291 -21
311 -44 76 -407 810 -547 1104 -513 1076 -693 1437 -815 1630 -99 158 -152
270 -206 435 -88 267 -133 504 -133 710 -1 176 24 293 79 380 71 110 159 160
297 167 50 3 106 1 125 -4 41 -10 25 17 254 -458 203 -421 470 -939 576 -1115
48 -80 162 -262 255 -405 92 -143 196 -305 232 -360 366 -568 623 -943 698
-1020 98 -100 212 -175 338 -225 41 -16 61 -20 69 -12 15 15 3 29 -40 43 -142
46 -285 149 -396 286 -54 68 -557 815 -552 820 10 10 135 12 246 3 222 -17
272 -39 550 -248 136 -102 618 -483 800 -632 84 -69 155 -109 330 -190 198
-91 237 -115 275 -165 15 -19 34 -35 41 -35 27 0 13 41 -28 83 -42 42 -108 78
-308 168 -164 74 -197 96 -604 422 -109 88 -271 215 -358 283 -88 68 -154 126
-146 128 202 64 317 89 413 90 88 1 92 0 197 -51 222 -107 482 -274 717 -460
182 -145 292 -218 444 -292 144 -70 177 -81 177 -56 0 11 -21 25 -62 43 -92
39 -244 119 -313 165 -77 51 -275 208 -275 217 0 28 417 40 542 16 149 -29
388 -134 888 -391 135 -69 313 -155 395 -191 178 -77 243 -118 290 -182 50
-67 120 -214 143 -302 63 -236 116 -770 167 -1678 21 -366 17 -438 -75 -1347
-65 -639 -73 -906 -35 -1071 45 -194 156 -456 321 -755 80 -145 100 -172 109
-147 3 8 -40 100 -97 204 -125 230 -196 387 -253 559 -84 253 -86 425 -9 1180
72 718 97 1046 88 1160 -2 28 -8 147 -14 265 -28 552 -73 1094 -116 1385 -37
249 -77 379 -159 511 -76 122 -131 161 -358 258 -56 24 -275 132 -487 239
-399 201 -574 280 -720 324 -78 24 -101 26 -275 27 -114 1 -231 -5 -292 -13
l-103 -14 -57 41 c-177 128 -446 287 -598 354 -154 67 -195 65 -504 -22 l-142
-41 -105 71 c-58 38 -109 70 -115 70 -24 0 -5 30 25 40 53 17 122 84 153 148
25 52 28 66 28 172 0 105 -4 125 -37 232 -21 65 -71 254 -112 420 -78 318
-127 475 -178 570 -62 116 -210 235 -435 349 l-115 59 -99 0 -99 0 0 623 0
623 48 36 c26 20 106 73 177 118 269 171 423 313 516 480 128 227 83 500 -99
608 -41 23 -57 27 -122 26 -102 -2 -342 -63 -502 -129 -17 -7 -18 58 -20 1166
-3 1167 -3 1174 -24 1219 -25 54 -72 103 -128 133 l-41 22 -2575 2 c-2238 1
-2580 0 -2616 -13z m2291 -256 c29 -34 31 -57 10 -98 -36 -69 -125 -68 -161 1
-50 97 80 181 151 97z m-842 -9 c15 -11 52 -68 83 -127 31 -59 66 -118 78
-130 48 -54 4 -52 993 -52 874 0 920 1 953 18 27 15 50 47 108 148 40 71 83
137 95 146 20 16 72 18 678 18 l657 0 30 -28 c17 -16 33 -43 37 -63 3 -19 4
-1303 3 -2853 l-3 -2820 -83 150 c-45 82 -164 310 -262 506 l-180 357 62 3 63
3 0 335 0 335 -2158 3 -2157 2 2 -337 3 -338 1651 -3 1651 -2 7 -113 c3 -61
15 -154 25 -204 l18 -93 -1679 0 -1678 0 2 -337 3 -338 1805 -3 1806 -2 52
-88 c29 -49 52 -91 52 -95 0 -4 -330 -8 -732 -9 l-733 -3 0 -390 0 -390 936
-3 936 -2 86 -178 86 -177 -72 -69 c-240 -231 -607 -511 -784 -600 -51 -26
-102 -57 -114 -69 -87 -93 -127 -337 -136 -833 l-6 -311 -61 26 -61 26 -869 3
c-559 2 -888 -1 -924 -8 -87 -16 -158 -54 -222 -119 -79 -81 -105 -146 -105
-266 0 -80 3 -97 31 -155 46 -95 93 -143 181 -187 l77 -38 870 -6 c479 -3 898
-2 931 3 33 5 86 21 118 37 31 15 57 27 57 27 3 -12 40 -903 40 -953 l0 -73
-1786 0 c-1648 0 -1788 1 -1814 17 -16 9 -33 27 -39 40 -8 16 -11 210 -11 612
0 538 2 599 20 718 37 239 50 396 50 593 0 194 -24 502 -55 700 -13 81 -15
366 -15 1968 l0 1873 25 48 c51 101 140 384 195 619 99 427 140 940 96 1205
-34 202 -141 402 -273 508 l-43 34 0 870 c1 926 -2 883 50 918 22 16 78 17
676 17 642 0 652 0 677 -21z m1601 0 c31 -25 34 -61 6 -89 -39 -39 -110 -11
-110 44 0 25 41 66 65 66 7 0 24 -9 39 -21z m-168 -34 c4 -8 1 -22 -6 -30 -10
-12 -50 -15 -230 -15 -120 0 -225 3 -234 6 -16 6 -22 35 -9 47 3 4 111 7 240
7 199 0 234 -2 239 -15z m3131 -2165 c57 -32 82 -63 118 -142 66 -145 31 -328
-95 -498 -99 -134 -243 -254 -490 -409 -63 -39 -125 -79 -137 -88 l-23 -15 0
520 0 521 53 19 c100 38 273 91 342 105 114 25 172 22 232 -13z m-1287 -2190
l0 -301 -56 3 -56 3 -128 265 -127 265 -44 12 c-103 27 -235 11 -332 -40 -124
-65 -210 -227 -224 -424 l-6 -83 -1633 0 -1634 0 0 300 0 300 2120 0 2120 0 0
-300z m953 -351 c214 -107 368 -230 424 -336 47 -89 96 -249 182 -598 44 -176
91 -356 105 -401 40 -126 47 -176 36 -255 -17 -118 -69 -191 -170 -238 -62
-29 -89 -30 -306 -14 -112 8 -150 15 -186 33 -247 123 -396 558 -333 975 45
296 175 577 298 641 31 16 36 44 9 44 -28 0 -87 -49 -133 -110 -84 -111 -158
-293 -200 -490 l-18 -85 0 443 -1 442 95 0 c95 0 96 0 198 -51z m-5853 -766
l0 -498 -101 101 -101 101 87 359 c103 427 104 434 110 434 3 0 5 -224 5 -497z
m4015 225 c15 -57 28 -112 28 -123 1 -11 6 -26 13 -32 13 -14 34 -98 34 -141
0 -20 3 -23 9 -13 7 11 22 -12 55 -84 25 -54 46 -100 46 -101 0 -2 -796 -4
-1770 -4 l-1770 0 0 300 0 300 1663 0 1664 0 28 -102z m-4117 -682 l102 -103
0 -442 c0 -251 -4 -440 -9 -437 -5 3 -14 26 -20 51 -20 78 -141 384 -207 524
-35 74 -64 141 -64 150 0 26 84 361 90 361 3 0 52 -47 108 -104z m5706 -173
c11 -33 1 -28 -23 11 -16 25 -21 49 -20 97 l1 64 17 -75 c10 -41 21 -85 25
-97z m-1051 -270 l178 -353 -910 0 -911 0 0 348 c0 192 3 352 7 355 3 4 333 6
732 5 l726 -3 178 -352z m1343 -170 c-8 -8 -36 5 -36 17 0 7 6 7 21 0 11 -7
18 -14 15 -17z m-556 -2231 l0 -774 -35 -60 c-20 -33 -42 -76 -51 -96 -12 -31
-16 -34 -28 -21 -7 8 -66 76 -130 152 l-116 138 0 62 c0 34 -5 112 -10 172 -5
61 -19 251 -30 424 l-20 313 38 42 c57 62 144 181 201 275 50 82 111 223 111
258 1 10 16 -11 35 -47 l34 -65 1 -773z m250 266 c0 -4 -7 -5 -15 -2 -8 4 -15
18 -15 33 l1 26 14 -25 c8 -14 14 -28 15 -32z m14 -55 c44 -20 44 -22 49 -380
l5 -262 -27 -23 c-14 -13 -36 -32 -48 -42 l-23 -19 0 371 c0 205 2 372 5 372
2 0 20 -7 39 -17z m-2753 -658 c16 -4 29 -13 29 -21 0 -10 -6 -11 -26 -4 -35
14 -34 15 -34 -32 0 -39 4 -45 33 -58 23 -11 33 -23 35 -43 4 -33 -22 -67 -50
-67 -11 0 -18 -7 -18 -20 0 -11 -4 -20 -10 -20 -5 0 -10 8 -10 18 0 11 -11 21
-32 27 -17 6 -34 16 -36 24 -4 10 0 12 14 6 52 -21 54 -20 54 24 0 34 -4 43
-23 50 -56 22 -61 73 -10 106 17 11 35 29 38 40 7 19 8 19 12 -2 3 -14 14 -24
34 -28z m-629 -22 c28 -28 28 -78 0 -105 -14 -15 -38 -23 -76 -26 -56 -4 -56
-4 -56 -38 0 -24 -5 -34 -15 -34 -12 0 -15 19 -15 108 0 60 3 112 8 116 4 4
35 6 70 4 47 -3 68 -9 84 -25z m828 7 c34 -34 25 -66 -37 -131 l-56 -59 61 0
c35 0 62 -4 62 -10 0 -6 -33 -10 -80 -10 -44 0 -80 4 -80 8 0 4 25 32 56 62
30 30 60 63 65 72 23 42 -32 79 -82 54 -18 -9 -31 -11 -35 -5 -7 12 -7 12 21
27 32 18 83 14 105 -8z m206 -3 c23 -20 28 -34 32 -83 4 -54 1 -63 -23 -92
-21 -25 -34 -32 -64 -32 -52 0 -82 34 -89 98 -10 106 74 169 144 109z m213 -3
c73 -61 38 -204 -50 -204 -67 0 -94 43 -90 143 1 36 51 87 84 87 14 0 39 -12
56 -26z m-1067 -51 c14 -13 18 -31 18 -85 0 -39 -4 -68 -10 -68 -5 0 -10 5
-10 12 0 9 -3 9 -12 0 -7 -7 -28 -12 -48 -12 -43 0 -60 15 -60 52 0 32 28 48
85 48 28 0 32 3 28 20 -7 25 -47 36 -78 22 -29 -13 -44 2 -18 17 28 16 84 13
105 -6z m102 -53 c17 -39 33 -67 36 -63 4 5 17 33 29 63 24 58 37 77 46 68 9
-9 -76 -191 -101 -217 -20 -22 -26 -23 -49 -13 -33 15 -25 30 14 24 48 -7 50
29 7 123 -41 89 -40 85 -23 85 6 0 25 -32 41 -70z"/>
<path d="M21237 22649 c-18 -25 -11 -56 15 -70 45 -24 91 24 63 67 -19 30 -59
32 -78 3z"/>
<path d="M23695 22538 c-3 -13 -4 -86 -3 -163 l3 -140 60 0 60 0 3 140 c4 188
5 185 -63 185 -48 0 -55 -3 -60 -22z m85 -143 c0 -118 -1 -125 -20 -125 -19 0
-20 7 -20 125 0 118 1 125 20 125 19 0 20 -7 20 -125z"/>
<path d="M23541 22476 c-8 -9 -11 -52 -9 -127 l3 -114 54 -3 c37 -2 57 1 62
10 14 21 11 222 -3 236 -17 17 -93 15 -107 -2z m69 -121 c0 -78 -2 -85 -20
-85 -18 0 -20 7 -20 85 0 78 2 85 20 85 18 0 20 -7 20 -85z"/>
<path d="M19507 22463 c-4 -3 -7 -57 -7 -120 l0 -113 249 0 c207 0 250 2 254
14 3 8 21 16 39 18 l33 3 0 80 0 80 -30 3 c-16 2 -35 12 -43 23 -12 18 -28 19
-251 19 -131 0 -241 -3 -244 -7z m453 -113 l0 -80 -210 0 -210 0 0 80 0 80
210 0 210 0 0 -80z m80 -5 c0 -33 -4 -45 -15 -45 -11 0 -15 12 -15 45 0 33 4
45 15 45 11 0 15 -12 15 -45z"/>
<path d="M23370 22320 l0 -90 60 0 60 0 0 90 0 90 -60 0 -60 0 0 -90z m80 0
c0 -43 -3 -50 -20 -50 -17 0 -20 7 -20 50 0 43 3 50 20 50 17 0 20 -7 20 -50z"/>
<path d="M23210 22285 l0 -55 61 0 60 0 -3 53 -3 52 -57 3 -58 3 0 -56z m80 0
c0 -8 -9 -15 -20 -15 -11 0 -20 7 -20 15 0 8 9 15 20 15 11 0 20 -7 20 -15z"/>
<path d="M22927 21329 c-52 -8 -93 -50 -107 -110 -21 -86 6 -153 100 -244 73
-71 90 -100 90 -154 0 -30 -5 -43 -19 -51 -47 -24 -81 1 -81 61 l0 39 -51 0
-52 0 6 -56 c10 -101 63 -148 160 -141 98 6 141 56 141 162 0 76 -19 113 -98
189 -79 76 -96 102 -96 152 0 45 14 64 46 64 31 0 54 -26 54 -61 0 -28 1 -29
50 -29 55 0 54 -1 39 68 -18 85 -87 128 -182 111z"/>
<path d="M20210 21006 l0 -326 55 0 55 0 0 119 0 118 56 6 c109 11 139 54 139
202 0 77 -4 108 -18 132 -30 56 -58 67 -179 72 l-108 3 0 -326z m198 121 c3
-97 3 -97 -23 -107 -63 -24 -65 -21 -65 101 l0 110 43 -3 42 -3 3 -98z"/>
<path d="M20625 21308 c-11 -51 -95 -592 -95 -615 0 -22 3 -24 43 -21 l42 3
11 55 10 55 62 3 c68 3 62 9 77 -80 6 -38 6 -38 55 -38 36 0 50 4 50 14 0 7
-22 153 -50 324 -27 171 -50 313 -50 316 0 3 -34 6 -75 6 -69 0 -75 -2 -80
-22z m100 -273 c12 -80 19 -147 17 -150 -3 -3 -25 -5 -50 -5 -43 0 -44 1 -39
28 3 15 13 84 23 154 10 70 20 125 23 123 2 -3 14 -70 26 -150z"/>
<path d="M20856 21308 c98 -306 117 -384 123 -508 l6 -125 50 0 50 0 5 130 c5
122 9 142 63 319 31 103 57 192 57 198 0 5 -21 8 -47 6 l-48 -3 -37 -140 c-20
-77 -37 -142 -38 -145 -1 -4 -53 179 -74 263 -6 25 -10 27 -62 27 -53 0 -55
-1 -48 -22z"/>
<path d="M21252 21003 l3 -328 45 0 45 0 5 200 5 200 28 -180 c39 -246 31
-225 82 -225 24 0 46 3 49 8 2 4 17 95 33 202 l28 194 5 -200 5 -199 48 -3 47
-3 0 330 0 331 -69 0 c-81 0 -69 28 -107 -235 -15 -104 -30 -193 -33 -197 -4
-4 -22 88 -40 205 -18 116 -35 215 -38 220 -2 4 -35 7 -74 7 l-69 0 2 -327z"/>
<path d="M21760 21000 l0 -331 138 3 137 3 3 48 3 47 -90 0 -91 0 0 95 0 95
70 0 70 0 0 45 0 45 -70 0 -70 0 0 90 0 89 88 3 87 3 3 48 3 47 -140 0 -141 0
0 -330z"/>
<path d="M22100 21000 l0 -330 45 0 45 0 2 233 3 232 60 -230 60 -230 53 -3
52 -3 0 330 0 331 -45 0 -45 0 -2 -187 -3 -188 -49 188 -49 187 -63 0 -64 0 0
-330z"/>
<path d="M22470 21280 l0 -50 50 0 50 0 2 -277 3 -278 50 0 50 0 3 278 2 277
50 0 50 0 0 50 0 50 -155 0 -155 0 0 -50z"/>
<path d="M20270 20080 c0 -5 5 -10 10 -10 6 0 10 5 10 10 0 6 -4 10 -10 10 -5
0 -10 -4 -10 -10z"/>
<path d="M20354 19995 c0 -55 1 -76 3 -47 2 29 2 74 0 100 -2 26 -3 2 -3 -53z"/>
<path d="M19650 19990 l0 -90 68 2 67 2 -57 3 -58 4 0 34 0 35 50 0 c28 0 50
5 50 10 0 6 -22 10 -50 10 l-50 0 0 35 0 34 58 4 57 3 -67 2 -68 2 0 -90z"/>
<path d="M19867 20029 c-9 -5 -22 -7 -27 -4 -6 4 -10 -19 -9 -62 l1 -68 8 48
c9 54 24 77 49 77 29 0 41 -22 41 -72 0 -26 5 -48 10 -48 6 0 10 20 10 44 0
47 19 76 49 76 29 0 41 -22 41 -72 0 -27 5 -48 10 -48 7 0 10 22 8 57 -3 50
-6 59 -29 72 -22 12 -29 12 -57 -1 -27 -14 -33 -14 -43 -2 -13 16 -37 18 -62
3z"/>
<path d="M20145 20033 c-36 -9 -43 -26 -7 -18 21 4 38 2 47 -5 27 -23 17 -39
-26 -42 -51 -4 -73 -29 -47 -54 9 -9 29 -16 45 -15 15 1 36 2 46 2 14 0 17 10
17 54 0 44 -4 57 -22 69 -12 9 -25 15 -28 15 -3 -1 -14 -3 -25 -6z m55 -86 c0
-20 -21 -37 -46 -37 -26 0 -38 14 -30 35 7 19 76 21 76 2z"/>
<path d="M20270 19970 c0 -40 4 -70 10 -70 6 0 10 30 10 70 0 40 -4 70 -10 70
-6 0 -10 -30 -10 -70z"/>
<path d="M19502 19483 l3 -338 2155 0 2155 0 0 335 0 335 -2158 3 -2157 2 2
-337z m4278 -3 l0 -300 -2120 0 -2120 0 0 300 0 300 2120 0 2120 0 0 -300z"/>
<path d="M20400 19590 c0 -5 7 -10 15 -10 8 0 15 5 15 10 0 6 -7 10 -15 10 -8
0 -15 -4 -15 -10z"/>
<path d="M20480 19505 c0 -57 4 -95 10 -95 6 0 10 38 10 95 0 57 -4 95 -10 95
-6 0 -10 -38 -10 -95z"/>
<path d="M22230 19590 c0 -5 5 -10 10 -10 6 0 10 5 10 10 0 6 -4 10 -10 10 -5
0 -10 -4 -10 -10z"/>
<path d="M22314 19505 c0 -55 1 -76 3 -47 2 29 2 74 0 100 -2 26 -3 2 -3 -53z"/>
<path d="M19782 19498 l3 -93 63 -3 c38 -2 62 1 62 8 0 6 -23 10 -55 10 l-55
0 0 35 0 35 51 0 c31 0 48 4 44 10 -3 6 -26 10 -51 10 -44 0 -44 0 -44 35 l0
34 58 4 57 3 -68 2 -68 2 3 -92z"/>
<path d="M21374 19556 c-29 -29 -34 -41 -34 -83 0 -28 7 -58 16 -71 30 -44
108 -66 144 -41 11 7 5 8 -21 3 -42 -7 -89 13 -113 48 -47 66 10 168 93 168
56 0 100 -40 107 -95 6 -46 -7 -71 -30 -62 -12 5 -16 20 -16 64 0 36 -4 53 -9
45 -7 -12 -12 -12 -29 -1 -28 17 -72 2 -88 -30 -28 -56 31 -115 86 -87 24 12
29 12 34 0 8 -20 30 -17 51 6 14 15 16 30 12 67 -7 68 -48 103 -118 103 -45 0
-55 -4 -85 -34z m126 -58 c24 -44 -13 -87 -63 -74 -35 8 -45 47 -22 82 22 34
63 30 85 -8z"/>
<path d="M20595 19541 c-11 -5 -26 -6 -32 -4 -10 4 -13 -13 -13 -67 0 -45 4
-69 10 -65 6 3 10 28 10 54 0 51 12 71 45 71 33 0 45 -20 45 -77 0 -29 5 -53
10 -53 14 0 12 103 -2 122 -17 21 -48 28 -73 19z"/>
<path d="M21205 19538 c-28 -16 -35 -28 -35 -64 0 -18 8 -38 20 -49 22 -20 74
-25 91 -8 6 6 -4 9 -32 9 -32 -1 -44 4 -56 22 l-15 22 61 0 c53 0 61 3 61 18
0 38 -60 69 -95 50z m63 -20 c26 -26 13 -38 -38 -38 -52 0 -60 8 -34 34 18 19
55 21 72 4z"/>
<path d="M21660 19542 c-71 -23 -66 -114 7 -136 25 -8 63 8 63 26 0 9 -3 9
-12 0 -26 -26 -88 -8 -88 25 0 9 17 13 55 13 46 0 55 3 55 18 0 9 -4 22 -8 29
-10 16 -54 31 -72 25z m54 -28 c26 -26 18 -34 -34 -34 -34 0 -50 4 -50 13 0
35 56 50 84 21z"/>
<path d="M22470 19543 c-68 -25 -67 -112 3 -136 20 -7 67 8 67 22 0 5 -12 5
-29 -2 -25 -9 -33 -8 -50 8 -26 23 -27 57 -3 78 22 20 43 22 60 5 6 -6 15 -9
19 -5 15 16 -39 40 -67 30z"/>
<path d="M22620 19542 c-51 -16 -68 -83 -30 -117 59 -53 148 15 110 85 -11 20
-58 39 -80 32z m48 -28 c41 -29 19 -94 -32 -94 -47 0 -65 52 -31 86 28 28 33
29 63 8z"/>
<path d="M19960 19468 c0 -82 18 -91 22 -11 3 53 5 58 31 68 39 13 57 -12 57
-78 0 -29 4 -46 10 -42 6 3 10 28 10 54 0 56 17 76 54 67 21 -5 26 -14 31 -54
10 -77 13 -80 14 -16 1 35 -4 65 -11 72 -16 16 -71 15 -86 0 -10 -10 -14 -10
-21 0 -5 8 -27 12 -59 11 l-52 -2 0 -69z"/>
<path d="M20250 19529 c-11 -8 -8 -9 13 -4 39 8 67 -2 67 -26 0 -16 -7 -19
-40 -19 -51 0 -71 -29 -40 -60 23 -23 33 -24 62 -9 16 9 23 8 29 -2 5 -9 9 9
9 47 0 33 -5 65 -12 72 -15 15 -68 15 -88 1z m78 -81 c-2 -17 -11 -24 -32 -26
-33 -4 -51 10 -43 32 4 11 19 16 42 16 32 0 36 -3 33 -22z"/>
<path d="M20413 19470 c0 -41 2 -58 4 -37 2 20 2 54 0 75 -2 20 -4 3 -4 -38z"/>
<path d="M20737 19533 c-16 -15 -5 -20 22 -10 23 8 33 8 45 -2 28 -24 19 -41
-22 -41 -62 0 -82 -36 -37 -66 20 -13 31 -14 49 -6 17 7 27 7 35 -1 8 -8 11 3
11 42 0 73 -12 91 -59 91 -21 0 -41 -3 -44 -7z m81 -85 c-2 -17 -11 -24 -32
-26 -33 -4 -51 10 -43 32 4 11 19 16 42 16 32 0 36 -3 33 -22z"/>
<path d="M20890 19473 c0 -34 5 -65 10 -68 6 -4 10 13 10 43 0 35 5 54 18 65
42 38 72 13 72 -60 0 -29 5 -53 10 -53 6 0 10 22 10 49 0 53 17 81 50 81 26 0
40 -30 40 -85 0 -28 4 -44 10 -40 16 10 12 88 -6 113 -16 24 -77 31 -89 12 -5
-8 -11 -8 -19 0 -7 5 -36 9 -65 8 l-51 -2 0 -63z"/>
<path d="M21791 19470 l1 -75 8 53 c9 57 23 82 49 82 29 0 41 -22 41 -71 0
-26 5 -51 10 -54 6 -4 10 13 10 44 0 52 17 81 49 81 29 0 41 -22 41 -77 0 -29
5 -53 10 -53 13 0 13 96 0 121 -12 22 -68 27 -88 7 -9 -9 -15 -9 -24 0 -15 15
-75 16 -84 1 -4 -8 -9 -7 -15 2 -5 9 -8 -16 -8 -61z"/>
<path d="M22077 19533 c-4 -3 -7 -11 -7 -17 0 -6 5 -5 12 2 25 25 78 8 78 -25
0 -8 -14 -13 -39 -13 -43 0 -66 -19 -56 -48 7 -24 39 -34 71 -22 15 6 24 6 24
0 0 -6 5 -10 10 -10 13 0 13 96 0 121 -8 14 -21 19 -49 19 -21 0 -41 -3 -44
-7z m83 -76 c0 -20 -21 -37 -46 -37 -26 0 -38 14 -30 35 7 19 76 21 76 2z"/>
<path d="M22230 19476 c0 -36 5 -68 10 -71 6 -4 10 20 10 64 0 41 -4 71 -10
71 -6 0 -10 -28 -10 -64z"/>
<path d="M22750 19476 c0 -82 17 -95 22 -19 4 62 1 83 -13 83 -5 0 -9 -29 -9
-64z"/>
<path d="M22785 19530 c-4 -7 2 -9 19 -4 41 10 56 -10 56 -73 0 -34 4 -52 10
-48 6 3 10 28 10 54 0 52 12 71 46 71 29 0 35 -11 44 -79 l7 -56 2 61 c0 35
-4 65 -11 72 -15 15 -70 16 -85 1 -8 -8 -13 -8 -17 0 -9 14 -73 14 -81 1z"/>
<path d="M22370 19414 c0 -8 5 -12 10 -9 6 3 10 10 10 16 0 5 -4 9 -10 9 -5 0
-10 -7 -10 -16z"/>
<path d="M20880 18855 c0 -38 -2 -40 -32 -24 -29 16 -76 -6 -85 -40 -9 -33 -5
-51 14 -73 18 -20 78 -24 89 -7 4 8 9 7 15 -2 5 -9 9 25 9 84 0 53 -2 97 -5
97 -3 0 -5 -16 -5 -35z m-25 -59 c30 -30 22 -66 -18 -80 -54 -19 -92 56 -45
88 30 21 35 20 63 -8z"/>
<path d="M19650 18790 c0 -53 4 -90 10 -90 6 0 10 14 10 30 0 29 2 30 45 30
50 0 85 25 85 60 0 38 -35 60 -95 60 l-55 0 0 -90z m108 64 c45 -31 11 -84
-55 -84 -33 0 -33 0 -33 50 0 50 0 50 33 50 18 0 43 -7 55 -16z"/>
<path d="M19865 18833 c-41 -10 -37 -22 6 -20 39 2 44 -1 47 -20 3 -21 -1 -23
-37 -23 -29 0 -43 -5 -50 -19 -14 -25 8 -53 40 -52 70 2 69 1 69 58 0 42 -4
55 -22 67 -12 9 -25 15 -28 15 -3 -1 -14 -3 -25 -6z m53 -95 c-2 -17 -11 -24
-32 -26 -16 -2 -32 2 -36 9 -14 22 1 39 37 39 30 0 34 -3 31 -22z"/>
<path d="M20008 18833 c-22 -6 -33 -40 -18 -57 6 -8 27 -17 46 -21 26 -4 34
-11 32 -23 -3 -13 -13 -17 -47 -15 -33 2 -41 -1 -33 -9 13 -13 73 -15 91 -3
15 9 14 40 -1 53 -7 5 -28 13 -46 17 -48 10 -40 40 11 40 20 0 37 3 37 6 0 6
-39 20 -50 18 -3 -1 -13 -3 -22 -6z"/>
<path d="M20143 18830 c-15 -6 -23 -18 -23 -34 0 -21 7 -27 40 -36 46 -12 55
-23 35 -40 -10 -8 -28 -10 -52 -5 -29 5 -35 4 -26 -5 16 -17 82 -15 100 2 21
22 5 47 -38 58 -29 8 -39 16 -39 31 0 17 6 20 33 19 46 -3 55 0 32 10 -25 11
-35 11 -62 0z"/>
<path d="M20241 18831 c-2 -28 42 -131 55 -131 8 0 14 6 15 13 0 6 9 30 19 52
l18 40 22 -52 c13 -29 27 -53 32 -53 9 0 44 75 54 118 11 44 -11 13 -33 -48
l-20 -54 -23 62 c-12 34 -26 62 -31 62 -4 0 -18 -28 -30 -62 l-23 -62 -13 35
c-23 59 -42 95 -42 80z"/>
<path d="M20507 18820 c-20 -16 -27 -31 -27 -54 0 -64 74 -92 120 -46 59 59
-27 152 -93 100z m75 -17 c26 -23 23 -59 -7 -79 -23 -15 -27 -15 -50 0 -25 16
-29 26 -25 56 2 18 28 40 49 40 8 0 23 -7 33 -17z"/>
<path d="M20660 18770 c0 -81 18 -95 22 -17 2 43 7 54 26 62 12 5 22 13 22 17
0 11 -8 10 -31 -2 -13 -7 -19 -7 -19 0 0 5 -4 10 -10 10 -6 0 -10 -30 -10 -70z"/>
<path d="M19507 16653 c-4 -3 -7 -181 -7 -395 l0 -388 1030 0 1030 0 -2 393
-3 392 -1021 3 c-561 1 -1024 -1 -1027 -5z m2018 -55 c3 -13 4 -171 3 -353
l-3 -330 -992 -3 -993 -2 0 355 0 355 990 0 990 0 5 -22z"/>
<path d="M19712 16413 l3 -58 40 -2 40 -1 -35 6 c-26 5 -36 13 -38 29 -3 18 3
22 30 26 l33 4 -32 1 c-25 2 -33 7 -33 21 0 15 8 21 38 24 l37 4 -43 1 -43 2
3 -57z"/>
<path d="M19820 16467 c0 -4 7 -18 15 -31 14 -21 14 -25 -5 -49 -29 -36 -24
-48 5 -12 l25 30 26 -30 c19 -22 22 -23 10 -5 -28 42 -29 50 -12 69 9 10 16
22 16 27 0 5 -9 -2 -20 -16 l-20 -25 -20 25 c-11 14 -20 21 -20 17z"/>
<path d="M19931 16408 c1 -35 4 -53 6 -41 3 16 13 23 35 25 67 7 62 70 -6 76
l-36 3 1 -63z m77 28 c5 -22 -13 -36 -45 -36 -19 0 -23 5 -23 31 0 28 2 30 32
27 23 -2 34 -9 36 -22z"/>
<path d="M20100 16410 c0 -56 2 -60 23 -59 16 1 18 2 5 6 -14 3 -18 15 -18 54
0 45 2 49 24 49 52 0 74 -56 34 -84 -12 -9 -17 -16 -11 -16 19 0 43 30 43 54
0 31 -30 56 -68 56 l-32 0 0 -60z"/>
<path d="M20328 16450 c-2 -7 -1 -31 2 -54 4 -31 10 -41 25 -44 18 -2 18 -2 3
8 -11 6 -18 23 -18 40 0 22 5 30 18 31 13 0 14 2 2 6 -8 3 -18 10 -21 16 -4 5
-8 4 -11 -3z"/>
<path d="M20255 16431 c31 -6 40 -32 21 -58 -6 -9 -3 -13 8 -13 10 0 16 9 16
24 0 43 -10 56 -44 55 l-31 -1 30 -7z"/>
<path d="M20401 16426 c-14 -17 -7 -66 9 -66 6 0 5 8 -1 19 -7 10 -9 26 -6 35
8 21 43 21 57 -1 10 -16 10 -16 8 2 -4 25 -49 32 -67 11z"/>
<path d="M20230 16380 c0 -11 2 -20 4 -20 2 0 6 9 9 20 3 11 1 20 -4 20 -5 0
-9 -9 -9 -20z"/>
<path d="M20126 16269 c-3 -8 -23 -65 -45 -126 -22 -62 -37 -113 -32 -113 9 0
93 241 86 248 -2 3 -7 -1 -9 -9z"/>
<path d="M19731 16214 c-25 -32 -27 -83 -6 -124 42 -82 147 -18 131 79 -7 46
-32 71 -72 71 -23 0 -38 -7 -53 -26z m83 3 c25 -19 33 -90 12 -122 -34 -52
-96 -20 -96 49 0 70 40 105 84 73z"/>
<path d="M19906 16221 c-19 -20 -14 -61 6 -61 6 0 4 -8 -5 -18 -38 -42 -10
-87 53 -87 21 0 45 7 54 14 20 17 21 55 1 71 -11 9 -13 16 -5 24 17 17 11 55
-9 66 -31 16 -76 12 -95 -9z m90 -5 c28 -22 7 -51 -36 -51 -43 0 -64 29 -36
51 11 8 27 14 36 14 9 0 25 -6 36 -14z m11 -92 c10 -26 -11 -49 -48 -52 -40
-4 -64 20 -48 49 13 25 87 27 96 3z"/>
<path d="M20160 16230 c-24 -15 -6 -21 27 -8 25 9 35 9 47 -1 28 -24 18 -55
-34 -106 -27 -27 -50 -53 -50 -57 0 -4 29 -8 65 -8 37 0 65 4 65 10 0 6 -23
10 -51 10 l-52 0 47 50 c46 50 58 84 34 108 -14 14 -77 16 -98 2z"/>
<path d="M20316 16209 c-11 -54 -8 -58 35 -61 27 -2 46 -9 53 -20 24 -40 -36
-73 -85 -48 -17 10 -20 9 -17 -1 6 -19 62 -31 92 -19 31 11 40 31 32 65 -5 19
-16 27 -52 36 -40 10 -45 14 -42 38 3 23 9 27 48 32 l45 6 -51 1 c-50 2 -52 1
-58 -29z"/>
<path d="M21226 15183 c-11 -11 -6 -23 9 -23 8 0 15 4 15 9 0 13 -16 22 -24
14z"/>
<path d="M21890 15175 c0 -8 5 -15 10 -15 6 0 10 7 10 15 0 8 -4 15 -10 15 -5
0 -10 -7 -10 -15z"/>
<path d="M20816 15148 c-8 -18 -26 -59 -40 -92 -29 -63 -30 -103 -2 -48 15 30
20 32 66 32 46 0 51 -2 66 -32 10 -18 19 -28 21 -22 5 14 -77 194 -88 194 -5
0 -15 -15 -23 -32z m48 -48 c9 -22 16 -43 16 -45 0 -3 -18 -5 -40 -5 -22 0
-40 4 -40 10 0 15 33 80 41 80 4 0 14 -18 23 -40z"/>
<path d="M21727 15173 c-4 -3 -7 -46 -7 -95 0 -72 3 -88 15 -88 11 0 15 11 15
39 l0 40 48 4 47 3 -47 2 -48 2 0 40 0 40 56 0 c34 0 53 4 49 10 -7 11 -118
14 -128 3z"/>
<path d="M21120 15146 c0 -8 -6 -17 -12 -20 -10 -5 -10 -7 0 -12 7 -3 12 -26
12 -59 0 -43 4 -56 19 -65 20 -10 51 -4 51 9 0 4 -10 7 -22 7 -21 -1 -23 4
-26 52 -3 47 -1 52 17 52 12 0 21 5 21 10 0 6 -9 10 -20 10 -11 0 -20 7 -20
15 0 8 -4 15 -10 15 -5 0 -10 -6 -10 -14z"/>
<path d="M20972 15110 c-29 -27 -29 -80 -2 -105 23 -21 75 -24 92 -7 17 17 3
25 -20 11 -27 -17 -72 11 -72 46 0 45 58 73 88 43 7 -7 12 -8 12 -2 0 36 -64
45 -98 14z"/>
<path d="M21225 15118 c-9 -24 -1 -128 10 -131 13 -3 19 123 6 136 -7 7 -12 5
-16 -5z"/>
<path d="M21322 15123 c-7 -3 -19 -18 -28 -34 -12 -25 -13 -34 -2 -56 35 -74
138 -49 138 33 0 39 -66 74 -108 57z m68 -33 c11 -11 20 -27 20 -35 0 -18 -35
-55 -53 -55 -49 0 -69 82 -24 100 32 13 35 12 57 -10z"/>
<path d="M21470 15054 c0 -47 4 -73 10 -69 6 3 10 28 10 54 0 51 12 71 45 71
33 0 45 -20 45 -77 0 -29 5 -53 10 -53 6 0 10 27 10 60 0 53 -3 61 -26 77 -21
13 -32 15 -55 6 -16 -6 -29 -7 -29 -2 0 5 -4 9 -10 9 -6 0 -10 -32 -10 -76z"/>
<path d="M21890 15055 c0 -43 4 -75 10 -75 6 0 10 32 10 75 0 43 -4 75 -10 75
-6 0 -10 -32 -10 -75z"/>
<path d="M21972 15114 c-26 -18 -30 -74 -6 -98 22 -22 59 -30 83 -16 18 9 21
8 21 -8 0 -39 -47 -55 -92 -31 -16 9 -19 8 -16 -3 3 -7 21 -17 41 -22 46 -12
82 10 91 55 16 80 0 168 -24 129 -5 -9 -9 -9 -14 -1 -10 16 -58 13 -84 -5z
m96 -48 c4 -34 -13 -56 -44 -56 -54 0 -73 73 -24 97 32 16 64 -3 68 -41z"/>
<path d="M22150 15072 c0 -36 5 -63 13 -69 24 -19 45 -21 71 -8 22 12 26 12
26 -1 0 -8 5 -12 10 -9 6 3 10 35 10 70 0 35 -4 67 -10 70 -6 4 -10 -8 -10
-29 0 -70 -30 -107 -71 -86 -15 8 -19 22 -19 60 0 27 -4 52 -10 55 -6 4 -10
-16 -10 -53z"/>
<path d="M22330 15053 c0 -85 17 -92 22 -8 2 41 7 52 26 60 12 5 22 13 22 17
0 12 -25 9 -38 -4 -9 -9 -12 -9 -12 0 0 7 -4 12 -10 12 -6 0 -10 -32 -10 -77z"/>
<path d="M22442 15107 c-38 -40 -25 -95 26 -116 31 -13 82 -1 82 19 0 10 -16
8 -57 -7 -6 -3 -22 6 -35 19 l-23 23 63 3 c53 3 62 6 62 22 0 27 -39 60 -70
60 -15 0 -36 -10 -48 -23z m88 -17 c10 -19 8 -20 -40 -20 -48 0 -50 1 -40 20
7 13 21 20 40 20 19 0 33 -7 40 -20z"/>
<path d="M20900 14800 c0 -35 -3 -40 -27 -46 -94 -23 -143 -77 -143 -158 0
-43 4 -53 38 -87 25 -25 54 -42 85 -50 l47 -11 0 -64 0 -64 -27 6 c-16 4 -48
15 -72 25 -24 11 -45 18 -46 17 -4 -4 -35 -80 -35 -84 0 -8 77 -42 110 -49 66
-13 69 -14 72 -53 3 -35 5 -37 38 -37 34 0 35 1 38 41 3 38 5 41 46 52 58 15
103 55 117 102 25 82 -17 153 -107 182 l-49 15 -3 62 c-3 69 2 72 65 46 41
-17 45 -15 66 37 l16 37 -55 21 c-30 11 -64 20 -74 20 -17 0 -20 7 -20 40 l0
40 -40 0 c-40 0 -40 0 -40 -40z m-3 -236 c-10 -11 -38 11 -44 34 -5 19 0 30
18 45 l24 19 3 -47 c2 -26 1 -49 -1 -51z m114 -154 c23 -13 25 -43 3 -64 -25
-26 -34 -19 -34 29 0 49 1 50 31 35z"/>
<path d="M21274 14746 c-17 -8 -47 -28 -68 -46 l-37 -33 42 -28 42 -28 36 25
c66 45 161 23 161 -36 0 -40 -30 -78 -145 -185 -110 -103 -116 -110 -113 -144
l3 -36 198 -3 197 -2 0 50 0 50 -112 0 -113 0 92 91 c100 98 119 133 110 206
-6 54 -50 105 -106 122 -51 15 -149 13 -187 -3z"/>
<path d="M21761 14739 c-87 -44 -127 -134 -119 -271 7 -133 65 -213 170 -238
148 -36 268 80 268 258 0 115 -34 193 -106 242 -53 35 -152 40 -213 9z m152
-99 c30 -24 47 -75 47 -140 -1 -109 -36 -170 -100 -170 -65 0 -100 57 -100
165 0 102 38 165 100 165 15 0 39 -9 53 -20z"/>
<path d="M22275 14741 c-49 -22 -98 -76 -116 -128 -8 -21 -14 -76 -14 -123 0
-73 4 -93 29 -143 80 -163 297 -167 378 -7 74 144 33 329 -87 397 -50 28 -133
30 -190 4z m134 -97 c34 -24 51 -75 51 -154 0 -110 -30 -160 -95 -160 -68 0
-98 50 -98 165 0 113 29 164 93 165 14 0 36 -7 49 -16z"/>
<path d="M22049 22634 c-9 -11 -9 -18 -1 -26 14 -14 42 -3 42 16 0 20 -27 27
-41 10z"/>
<path d="M19801 18312 c-1 -19 -5 -22 -23 -17 -21 5 -21 5 -5 -5 18 -11 18
-12 0 -25 -17 -13 -17 -14 4 -9 15 4 23 1 26 -13 4 -17 5 -17 6 0 1 14 6 17
24 12 20 -5 20 -5 5 8 -14 11 -15 16 -5 27 10 10 9 12 -5 7 -12 -4 -18 1 -21
16 -4 22 -4 21 -6 -1z"/>
<path d="M19911 18312 c-1 -19 -5 -22 -23 -17 l-23 7 23 -17 c12 -9 23 -26 23
-38 1 -18 2 -18 6 -4 3 13 11 16 26 12 20 -6 21 -5 5 8 -14 11 -15 16 -5 27
10 10 9 12 -5 7 -12 -4 -18 1 -21 16 -4 22 -4 21 -6 -1z"/>
<path d="M20021 18312 c-1 -19 -5 -22 -23 -17 l-23 7 23 -17 c12 -9 23 -26 23
-38 1 -18 2 -18 6 -4 3 13 11 16 26 12 20 -6 21 -5 5 8 -14 11 -15 16 -5 27
10 10 9 12 -5 7 -12 -4 -18 1 -21 16 -4 22 -4 21 -6 -1z"/>
<path d="M20351 18313 c-1 -26 -11 -29 -29 -11 -8 8 -12 8 -12 1 0 -6 7 -14
17 -17 14 -6 14 -8 -3 -21 -18 -13 -18 -14 3 -9 15 4 23 1 26 -13 4 -17 5 -17
6 0 1 14 6 17 24 12 19 -5 20 -5 4 5 -15 10 -16 14 -5 28 11 13 11 15 -4 9
-12 -4 -18 0 -21 16 l-4 22 -2 -22z"/>
<path d="M20131 18308 c-1 -21 -12 -23 -29 -6 -8 8 -12 8 -12 1 0 -6 7 -14 17
-17 14 -6 14 -8 -3 -21 -18 -13 -18 -14 3 -9 15 4 23 1 26 -13 4 -17 5 -17 6
0 1 14 6 17 24 12 20 -5 20 -5 5 8 -14 11 -15 16 -5 27 10 10 9 12 -5 7 -11
-4 -18 0 -21 11 -4 16 -5 15 -6 0z"/>
<path d="M20241 18308 c-1 -21 -12 -23 -29 -6 -8 8 -12 8 -12 1 0 -6 7 -14 17
-17 14 -6 14 -8 -3 -21 -18 -13 -18 -14 3 -9 15 4 23 1 26 -13 4 -17 5 -17 6
0 1 14 6 17 24 12 20 -5 20 -5 5 8 -14 11 -15 16 -5 27 10 10 9 12 -5 7 -11
-4 -18 0 -21 11 -4 16 -5 15 -6 0z"/>
<path d="M20461 18307 c-1 -14 -6 -17 -23 -12 -21 5 -21 5 -5 -5 18 -11 18
-12 0 -25 -17 -13 -17 -14 4 -9 15 4 23 1 26 -13 5 -17 5 -17 6 1 1 12 6 16
17 12 13 -5 14 -4 6 7 -9 10 -8 17 1 27 10 10 9 12 -5 7 -11 -4 -18 0 -21 11
-4 15 -5 15 -6 -1z"/>
<path d="M20571 18307 c-1 -14 -6 -17 -23 -12 -17 5 -19 4 -9 -4 12 -8 12 -12
2 -24 -10 -13 -9 -15 8 -10 13 3 21 -1 24 -14 5 -17 5 -17 6 1 1 12 6 16 17
12 13 -5 14 -4 6 7 -9 10 -8 17 1 27 10 10 9 12 -5 7 -11 -4 -18 0 -21 11 -4
15 -5 15 -6 -1z"/>
<path d="M20681 18307 c-1 -14 -6 -17 -23 -12 -17 5 -19 4 -9 -4 12 -8 12 -12
2 -24 -10 -13 -9 -15 8 -10 13 3 21 -1 24 -14 5 -17 5 -17 6 1 1 12 6 16 17
12 13 -5 14 -4 6 7 -9 10 -8 17 1 27 10 10 9 12 -5 7 -11 -4 -18 0 -21 11 -4
15 -5 15 -6 -1z"/>
<path d="M20791 18307 c-1 -14 -6 -17 -23 -12 -17 5 -19 4 -9 -4 12 -8 12 -12
2 -24 -10 -13 -9 -15 8 -10 13 3 21 -1 24 -14 5 -17 5 -17 6 1 1 12 6 16 17
12 14 -6 15 -4 4 10 -12 13 -11 17 1 26 11 8 11 9 -3 4 -10 -3 -18 1 -21 12
-4 15 -5 15 -6 -1z"/>
<path d="M20901 18307 c-1 -14 -6 -17 -23 -12 -17 5 -19 4 -9 -4 12 -8 12 -12
2 -24 -10 -13 -9 -15 8 -10 13 3 21 -1 24 -14 5 -17 5 -17 6 1 1 12 6 16 17
12 14 -6 15 -4 4 10 -12 13 -11 17 1 26 11 8 11 9 -3 4 -10 -3 -18 1 -21 12
-4 15 -5 15 -6 -1z"/>
<path d="M19875 18260 c-3 -6 1 -7 9 -4 18 7 21 14 7 14 -6 0 -13 -4 -16 -10z"/>
<path d="M19985 18260 c-3 -6 1 -7 9 -4 18 7 21 14 7 14 -6 0 -13 -4 -16 -10z"/>
<path d="M19710 17361 c-5 -11 -10 -28 -10 -38 0 -17 17 -18 305 -18 l305 0 0
26 c0 48 -5 49 -307 49 -269 0 -283 -1 -293 -19z"/>
<path d="M19700 17146 c0 -107 1 -116 22 -130 19 -14 63 -16 283 -16 220 0
264 2 283 16 21 14 22 23 22 130 l0 114 -305 0 -305 0 0 -114z"/>
<path d="M21120 17250 c0 -5 9 -10 20 -10 18 0 20 -7 20 -85 0 -50 4 -85 10
-85 6 0 10 38 10 95 l0 95 -30 0 c-16 0 -30 -4 -30 -10z"/>
<path d="M21230 17245 c-15 -18 -10 -18 26 -5 20 8 32 7 50 -5 13 -8 24 -20
24 -26 0 -6 -25 -36 -55 -68 -30 -32 -55 -61 -55 -64 0 -4 29 -7 65 -7 37 0
65 4 65 10 0 6 -21 10 -46 10 l-46 0 41 46 c42 48 53 88 29 112 -17 17 -83 15
-98 -3z"/>
<path d="M21375 17250 c3 -5 24 -10 46 -10 44 0 48 -8 19 -35 -28 -25 -25 -43
8 -47 23 -3 27 -8 27 -33 0 -26 -4 -30 -32 -33 -18 -2 -42 2 -54 8 -17 10 -20
9 -17 -2 3 -7 21 -17 41 -22 74 -19 120 54 58 92 l-29 17 24 28 c13 16 24 32
24 38 0 5 -27 9 -61 9 -37 0 -58 -4 -54 -10z"/>
<path d="M21578 17200 c-27 -32 -48 -64 -48 -70 0 -5 22 -10 50 -10 47 0 50
-2 50 -25 0 -14 5 -25 10 -25 6 0 10 11 10 25 0 18 5 25 20 25 11 0 20 5 20
10 0 6 -9 10 -20 10 -13 0 -20 7 -20 20 0 11 -4 20 -10 20 -5 0 -10 -9 -10
-20 0 -17 -7 -20 -41 -20 l-41 0 39 48 c47 56 57 72 46 72 -4 0 -29 -27 -55
-60z"/>
<path d="M21790 17215 c0 -45 0 -45 34 -45 52 0 83 -39 54 -68 -15 -15 -74
-16 -83 -2 -4 6 -11 7 -17 4 -15 -10 31 -33 65 -34 28 0 67 30 67 53 0 29 -31
57 -64 57 -41 0 -44 3 -38 39 4 28 8 30 51 34 44 3 44 3 -11 5 l-58 2 0 -45z"/>
<path d="M21962 17238 c-11 -13 -24 -35 -27 -50 -9 -34 11 -95 35 -108 47 -25
100 2 100 51 0 35 -18 49 -60 49 -20 0 -41 -5 -48 -12 -9 -9 -12 -7 -12 10 0
13 11 34 25 48 21 21 31 24 57 19 21 -5 28 -4 24 4 -13 20 -71 13 -94 -11z
m82 -90 c21 -29 4 -58 -32 -58 -31 0 -52 16 -52 40 0 41 59 54 84 18z"/>
<path d="M22090 17235 c0 -14 5 -25 10 -25 6 0 10 7 10 15 0 11 12 15 45 15
25 0 45 -2 45 -4 0 -3 -16 -39 -35 -82 -39 -85 -39 -84 -26 -84 6 0 59 106 88
178 4 9 -13 12 -66 12 -69 0 -71 -1 -71 -25z"/>
<path d="M22278 17249 c-20 -11 -25 -69 -6 -69 6 0 4 -7 -5 -18 -36 -39 -5
-92 53 -92 56 0 92 59 55 90 -13 11 -13 14 0 27 20 19 19 29 -5 53 -21 21 -64
26 -92 9z m72 -9 c14 0 21 -32 9 -46 -26 -32 -97 -7 -83 29 6 17 31 27 52 21
8 -2 17 -4 22 -4z m4 -86 c26 -10 20 -53 -9 -66 -35 -16 -75 3 -75 36 0 32 41
47 84 30z"/>
<path d="M22507 17242 c-49 -54 17 -117 84 -82 15 9 19 7 19 -7 0 -38 -29 -63
-71 -63 -24 0 -38 -4 -34 -10 10 -17 61 -11 88 10 32 25 42 69 27 115 -18 55
-79 74 -113 37z m67 -2 c32 -12 34 -43 5 -63 -42 -30 -92 11 -63 51 17 25 22
26 58 12z"/>
<path d="M22650 17250 c0 -5 9 -10 20 -10 18 0 20 -7 20 -85 0 -50 4 -85 10
-85 6 0 10 38 10 95 l0 95 -30 0 c-16 0 -30 -4 -30 -10z"/>
<path d="M22788 17249 c-25 -14 -40 -78 -28 -118 28 -99 140 -72 140 34 0 74
-56 117 -112 84z m71 -17 c16 -12 22 -29 23 -58 1 -57 -16 -84 -51 -84 -39 0
-56 24 -56 77 0 35 5 49 24 64 29 23 33 23 60 1z"/>
<path d="M21906 16454 c-23 -22 -20 -30 4 -9 12 11 29 16 44 13 14 -3 23 -1
20 3 -9 15 -51 10 -68 -7z"/>
<path d="M22021 16411 c12 -34 24 -59 28 -56 3 4 13 27 22 53 l16 47 21 -55
20 -55 15 36 c19 43 33 105 17 74 -5 -11 -15 -33 -21 -50 l-11 -30 -14 40
c-21 58 -30 62 -44 18 -18 -56 -26 -59 -40 -16 -7 21 -16 42 -21 48 -5 5 0
-19 12 -54z"/>
<path d="M21890 16391 c0 -10 29 -36 34 -30 1 2 -6 12 -16 22 -10 9 -18 13
-18 8z"/>
<path d="M21898 16233 c21 -4 22 -9 22 -88 0 -46 5 -87 10 -90 6 -4 10 28 10
89 l0 96 -32 -1 c-24 -1 -27 -3 -10 -6z"/>
<path d="M21994 16225 c-23 -17 -17 -19 24 -4 36 12 72 -2 72 -29 0 -10 -25
-42 -55 -72 -30 -29 -52 -57 -49 -62 7 -12 124 -10 124 2 0 6 -21 10 -47 10
l-47 0 41 43 c49 50 62 87 38 111 -20 20 -75 21 -101 1z"/>
<path d="M22183 16233 c26 -2 47 -7 47 -10 0 -3 -11 -19 -25 -35 l-26 -30 33
-17 c38 -19 44 -33 23 -55 -19 -18 -66 -21 -82 -5 -7 7 -13 7 -17 0 -4 -6 10
-15 33 -22 34 -10 44 -9 66 5 33 22 35 70 3 87 -13 6 -25 13 -27 15 -1 1 9 19
24 38 l27 36 -63 -2 c-57 -1 -59 -2 -16 -5z"/>
<path d="M21647 13383 c-13 -12 -7 -51 9 -57 24 -9 24 -9 24 29 0 33 -16 46
-33 28z"/>
<path d="M21700 13246 c0 -39 18 -48 41 -20 15 18 2 47 -25 52 -12 3 -16 -4
-16 -32z"/>
<path d="M20970 13340 l0 -63 50 5 c56 6 80 21 80 52 0 40 -23 58 -78 64 l-52
5 0 -63z"/>
<path d="M22047 13380 c-23 -18 -27 -29 -27 -74 0 -63 20 -96 59 -96 35 0 57
24 66 71 7 37 -15 109 -34 109 -5 0 -16 2 -23 5 -8 3 -26 -4 -41 -15z"/>
<path d="M22273 13388 c-44 -21 -53 -118 -15 -160 22 -25 67 -23 86 4 10 13
16 44 16 74 0 45 -4 56 -26 73 -30 24 -31 24 -61 9z"/>
<path d="M21195 13256 c-28 -20 -12 -46 29 -46 36 0 64 28 51 50 -9 15 -58 12
-80 -4z"/>
<path d="M28623 14776 c-135 -109 -159 -109 -391 -11 -128 54 -269 57 -370 7
-37 -18 -80 -54 -136 -113 -145 -154 -166 -158 -426 -84 -267 76 -406 52 -668
-116 -142 -92 -215 -129 -252 -129 -35 0 -110 37 -217 108 -317 209 -438 220
-635 58 -107 -88 -280 -308 -259 -329 14 -14 27 -2 72 64 22 34 85 107 140
163 79 82 114 111 173 141 70 35 79 37 143 33 86 -7 146 -33 310 -139 143 -92
236 -139 273 -139 36 0 149 56 260 129 127 84 197 119 288 142 130 33 179 27
462 -52 85 -24 174 -24 225 0 25 11 73 54 124 109 115 127 158 147 301 146
102 -1 108 -2 214 -48 193 -84 244 -84 353 -1 32 25 77 59 101 77 23 18 42 38
42 45 0 28 -39 10 -127 -61z"/>
<path d="M17595 11451 c-3 -5 9 -20 27 -33 152 -110 206 -152 290 -225 189
-163 407 -411 495 -560 25 -43 53 -57 53 -27 0 21 -89 154 -177 264 -136 170
-411 421 -599 549 -63 42 -79 48 -89 32z"/>
</g>
</svg>
